# xmcd
#
# Track frame offsets:
#	150
#	12965
#	29855
#	41427
#	53017
#	63862
#	76165
#	90737
#
# Disc length: 1381
#
# Revision: 1
# Processed by: cddbd v1.5.1PL0 Copyright (c) Steve Scherf et al.
# Submitted via: VisiTrax 2.9.5.180 - For more info visit www.synapsa.com
# Normalized: r0:DSETVAR1
#
DISCID=5a056308
DTITLE=Various Artist - 60s and 70s Country Rock
DYEAR=1994
DGENRE=Country
TTITLE0=Claude King - Wolverton Mountain
TTITLE1=Gary Pucket - Son of Hickory Holler's Tramp, The
TTITLE2=Sammi Smith - Help Me Make It Through the Night
TTITLE3=Terry Cobb - Endless Sleep
TTITLE4=Harold Dorman - Mountain of Love
TTITLE5=Wanda Jackson - Right or Wrong
TTITLE6=Percy Sledge - Take Time to Know Her
TTITLE7=Darrell Glenn - Crying in the Chapel
EXTD=(c) 1994 King Records, Inc.\nSubmitted by Larry@AustinViews.com
EXTT0=
EXTT1=
EXTT2=
EXTT3=
EXTT4=
EXTT5=
EXTT6=
EXTT7=
PLAYORDER=
